<?xml version="1.0" standalone="no"?>
<!DOCTYPE svg PUBLIC "-//W3C//DTD SVG 20010904//EN"
 "http://www.w3.org/TR/2001/REC-SVG-20010904/DTD/svg10.dtd">
<svg version="1.0" xmlns="http://www.w3.org/2000/svg"
 width="381.000000pt" height="470.000000pt" viewBox="0 0 381.000000 470.000000"
 preserveAspectRatio="xMidYMid meet">
<metadata>
Created by potrace 1.15, written by Peter Selinger 2001-2017
</metadata>
<g transform="translate(0.000000,470.000000) scale(0.100000,-0.100000)"
fill="#000000" stroke="none">
<path d="M2070 4263 c0 -4 9 -17 21 -29 l21 -22 -27 -15 c-25 -13 -34 -11 -99
14 -84 34 -100 35 -124 11 -11 -11 -40 -21 -70 -25 -57 -7 -108 -28 -139 -57
-12 -10 -39 -23 -60 -29 -63 -17 -111 -52 -224 -166 -70 -71 -80 -95 -59 -136
6 -10 7 -19 3 -19 -28 0 -56 -173 -33 -196 7 -7 8 -40 4 -92 l-7 -82 -33 -6
c-18 -3 -37 -4 -42 -1 -4 3 -27 -1 -50 -8 -40 -14 -42 -14 -65 9 -17 17 -32
22 -49 19 -19 -4 -33 3 -54 25 -27 27 -33 29 -74 23 -34 -5 -52 -2 -76 12 -30
17 -33 17 -68 0 -31 -14 -40 -15 -57 -5 -24 15 -57 7 -82 -19 -24 -25 -39 -24
-67 6 -24 26 -24 26 -40 6 -10 -13 -33 -22 -69 -27 -51 -7 -53 -6 -47 14 10
30 -35 41 -78 19 -17 -9 -40 -17 -51 -19 -14 -3 -20 -11 -20 -32 0 -18 -11
-39 -35 -62 -30 -30 -34 -40 -32 -80 1 -36 8 -52 28 -71 l26 -24 23 21 c19 18
28 19 63 12 35 -8 43 -7 61 12 17 16 35 21 79 22 69 1 115 9 168 27 37 14 41
13 69 -9 16 -12 33 -21 37 -18 4 3 20 -4 36 -14 15 -11 46 -25 69 -32 38 -12
45 -11 61 3 10 10 25 17 34 17 8 0 35 13 59 30 30 20 51 27 67 23 16 -4 30 1
45 15 22 21 128 52 179 52 15 0 33 -6 39 -13 7 -7 25 -11 40 -9 32 5 69 -13
69 -33 0 -8 -8 -15 -17 -15 -13 0 -14 -3 -5 -12 7 -7 12 -19 12 -29 0 -13 12
-16 65 -17 35 -1 67 3 70 8 10 16 -26 40 -62 40 -35 0 -35 1 -29 33 4 17 10
33 15 35 5 2 7 12 4 22 -3 13 0 20 8 20 10 0 10 3 1 12 -18 18 -14 38 7 38 13
0 18 6 15 18 -2 9 9 42 24 72 34 69 67 82 145 58 64 -20 97 -21 97 -3 0 7 7
16 16 19 22 9 24 8 24 -9 0 -9 -13 -24 -30 -33 -16 -9 -32 -23 -35 -30 -3 -7
-1 -10 4 -7 6 3 15 -3 21 -12 8 -13 13 -14 16 -5 6 13 25 17 22 5 -4 -19 15
-62 25 -56 6 4 25 8 41 9 17 1 43 6 58 9 23 6 28 3 33 -17 10 -38 -10 -77 -34
-71 -12 3 -21 1 -21 -5 0 -22 -28 -18 -60 9 -50 44 -79 35 -85 -27 -4 -34 1
-44 33 -80 33 -36 41 -40 75 -36 20 2 37 8 37 14 0 5 10 6 21 3 19 -6 21 -4
15 18 -5 21 -2 25 25 31 61 12 79 8 79 -18 0 -24 20 -39 59 -45 14 -2 20 -55
8 -63 -8 -5 -7 -8 3 -8 13 0 13 -2 1 -9 -9 -6 -22 -6 -32 0 -14 7 -18 4 -21
-14 -3 -20 -9 -22 -93 -27 l-90 -5 43 -19 c48 -21 50 -40 5 -44 -25 -3 -39 5
-72 38 -120 122 -291 86 -356 -75 -14 -33 -25 -56 -25 -51 0 18 -40 -27 -40
-46 0 -14 5 -17 24 -12 21 5 24 2 29 -40 6 -45 31 -102 61 -139 12 -16 17 -16
35 -5 16 10 23 10 33 0 9 -9 9 -12 -3 -13 -7 -1 -18 -2 -24 -4 -5 -1 -15 -3
-22 -3 -6 -1 -23 -22 -37 -47 -23 -41 -23 -46 -8 -51 67 -20 137 -77 148 -120
6 -22 2 -31 -17 -47 l-23 -19 -41 45 c-80 89 -119 140 -120 158 -1 11 -21 40
-46 65 l-44 45 0 90 0 91 52 48 c43 39 93 112 93 135 0 4 -35 5 -77 3 -66 -3
-81 0 -101 16 -12 11 -36 26 -52 32 -24 11 -28 10 -23 -2 3 -8 0 -14 -6 -14
-6 0 -13 11 -17 24 -5 21 -28 35 -58 36 -4 0 -6 -9 -3 -20 3 -11 -1 -23 -8
-28 -7 -4 -30 -38 -50 -76 -28 -54 -34 -71 -23 -77 21 -14 50 -11 116 12 73
25 94 21 88 -17 -7 -36 -33 -63 -83 -86 -24 -10 -43 -23 -43 -28 0 -6 -19 -10
-41 -10 -34 0 -39 -2 -30 -14 11 -13 49 -25 136 -43 27 -6 41 -15 43 -27 2
-10 0 -16 -5 -13 -5 3 -24 -3 -41 -14 -18 -10 -44 -19 -58 -19 -19 0 -25 -4
-21 -14 4 -9 -1 -16 -11 -19 -13 -3 -9 -7 13 -17 17 -8 32 -15 34 -17 2 -1 -3
-9 -11 -16 -9 -9 -25 -13 -41 -10 -31 6 -32 5 -12 -33 9 -19 13 -51 11 -89 -2
-33 0 -70 5 -82 4 -12 4 -25 0 -27 -5 -3 -11 -19 -14 -36 -9 -41 -60 -142
-143 -281 -19 -31 -34 -61 -34 -66 0 -6 -16 -30 -35 -54 -19 -24 -35 -49 -35
-55 0 -7 -7 -14 -15 -18 -8 -3 -15 -11 -15 -17 0 -6 -13 -27 -30 -46 -16 -18
-30 -40 -30 -47 0 -7 -18 -36 -41 -65 -22 -28 -38 -51 -34 -51 3 0 -3 -9 -14
-21 -11 -12 -25 -34 -31 -50 -25 -61 -85 -41 -128 42 -20 38 -23 56 -20 130 3
75 6 90 31 122 15 19 27 38 27 41 0 13 -63 -29 -67 -45 -6 -22 -19 -25 -25 -7
-3 9 -8 6 -15 -7 -17 -30 -1 -207 21 -240 11 -17 15 -36 12 -51 -7 -25 16 -44
53 -44 11 0 32 -5 48 -12 15 -6 32 -10 36 -9 14 3 171 -41 182 -50 11 -11 1
-11 -47 0 -27 6 -40 5 -48 -4 -6 -8 -20 -13 -30 -12 -23 1 -36 27 -14 27 8 0
12 5 9 10 -3 6 -19 10 -34 10 -15 0 -31 4 -37 10 -6 6 -21 6 -39 1 l-30 -8 30
-14 c17 -7 31 -14 33 -15 1 0 0 -8 -4 -17 -5 -15 -8 -15 -32 0 -15 9 -38 28
-51 42 -19 22 -22 23 -17 6 5 -17 4 -18 -6 -4 -12 14 -16 12 -38 -15 -13 -17
-17 -25 -7 -17 15 12 18 10 26 -10 4 -13 12 -23 17 -22 5 1 8 -10 7 -25 -2
-21 0 -23 7 -12 6 9 10 10 10 3 0 -6 3 -20 6 -30 5 -15 4 -15 -5 -3 -8 12 -11
6 -11 -27 0 -23 -4 -45 -10 -48 -6 -4 -10 11 -10 37 0 55 -15 81 -24 44 -4
-16 -13 -26 -25 -26 -16 0 -18 7 -15 52 l4 52 -42 -40 c-37 -35 -40 -37 -35
-15 3 14 1 31 -5 38 -7 9 -6 19 4 35 15 25 23 88 11 88 -5 0 -19 -19 -31 -41
-20 -34 -25 -59 -28 -145 -4 -97 -2 -108 22 -155 27 -54 69 -98 94 -99 10 0
11 -3 3 -11 -6 -6 -9 -18 -6 -27 5 -12 1 -14 -19 -9 -33 9 -57 -15 -38 -38 7
-8 21 -15 31 -15 11 0 19 -4 19 -10 0 -28 -106 11 -142 53 -15 17 -27 38 -28
45 0 6 -5 12 -11 12 -6 0 -9 9 -6 20 3 11 1 23 -4 26 -9 5 -14 -12 -9 -31 2
-5 2 -20 1 -33 -1 -33 24 -77 62 -106 43 -33 197 -65 321 -68 82 -2 96 1 146
26 55 29 131 81 176 123 15 14 24 33 24 52 0 24 7 34 30 46 16 8 41 15 55 15
14 0 37 7 50 16 20 13 25 14 26 3 0 -8 2 -23 4 -34 3 -11 7 -60 10 -110 10
-159 16 -178 78 -246 18 -20 19 -20 48 13 24 28 31 31 39 18 5 -8 10 -35 11
-60 1 -40 2 -42 8 -15 6 28 8 29 18 10 6 -11 9 -34 5 -50 -4 -25 -3 -28 9 -18
9 7 20 8 28 4 23 -15 2 -30 -34 -26 -21 3 -35 1 -35 -6 0 -6 -8 -8 -18 -5 -15
5 -17 1 -14 -34 2 -22 8 -40 14 -40 5 0 8 -15 6 -32 -3 -32 -1 -34 47 -49 28
-9 67 -19 87 -23 l36 -7 7 67 c7 62 9 66 31 61 13 -2 24 -1 24 4 0 12 -36 30
-44 22 -3 -3 -6 39 -6 95 l0 101 30 -9 c17 -5 30 -5 30 -1 0 5 -15 12 -32 16
-18 4 -27 9 -20 12 10 4 10 8 0 21 -10 12 -10 14 0 8 7 -4 12 -2 12 8 0 8 -4
18 -10 21 -13 8 -13 25 0 25 6 0 10 -7 10 -15 0 -8 5 -15 11 -15 6 0 8 9 4 22
-3 13 -3 19 2 13 10 -12 43 -16 43 -5 0 5 8 6 18 3 22 -5 26 -73 4 -73 -7 0
-11 4 -8 9 3 5 -1 12 -10 15 -20 8 -24 8 -23 -2 4 -22 -3 -34 -16 -29 -8 4
-17 2 -20 -3 -4 -6 5 -10 18 -10 14 0 27 -6 30 -14 4 -9 14 -12 27 -9 11 3 20
2 19 -3 -3 -18 3 -49 7 -38 5 11 54 7 54 -5 0 -3 15 -7 33 -7 17 -1 54 -7 81
-14 l49 -12 -6 -81 c-7 -84 -17 -107 -39 -90 -7 5 -40 15 -73 22 -33 8 -68 17
-77 22 -23 12 -29 -1 -30 -61 -1 -48 -2 -49 -27 -45 -25 5 -25 5 -3 -4 12 -6
22 -19 22 -30 0 -15 10 -23 38 -31 68 -19 109 -22 131 -11 12 7 21 8 20 4 -4
-24 3 -43 15 -43 17 0 24 -16 22 -52 -1 -14 2 -24 6 -22 4 3 8 16 8 30 0 21 4
24 41 24 22 0 49 -5 60 -10 13 -8 19 -7 19 0 0 6 6 10 13 9 24 -3 37 1 37 12
0 5 -5 7 -11 4 -7 -5 -9 4 -6 26 3 29 7 34 28 31 l24 -3 -22 16 c-25 17 -31
45 -10 45 9 0 9 2 -1 9 -14 8 -18 70 -9 126 2 17 8 56 12 88 8 60 11 63 63 48
19 -6 32 -6 32 0 0 5 -18 12 -40 15 -33 5 -40 10 -40 30 0 13 7 24 18 27 16 4
16 5 0 6 -10 0 -18 7 -18 15 0 17 -14 21 -85 31 -47 6 -85 27 -85 47 0 4 11 6
25 2 44 -11 91 67 50 82 -25 10 -6 24 31 24 19 0 33 -4 30 -9 -3 -4 -16 -7
-28 -6 -13 1 -15 0 -5 -2 9 -2 17 -11 17 -19 0 -23 17 -16 24 10 6 24 9 25 84
24 84 -1 118 -13 100 -35 -7 -9 -7 -13 0 -13 6 0 15 6 19 14 7 13 19 13 84 1
42 -7 98 -23 125 -36 27 -12 72 -31 99 -41 29 -10 38 -16 23 -14 -32 4 -38
-10 -8 -19 24 -8 25 -17 4 -61 -16 -34 -16 -34 -73 -28 -31 3 -76 10 -101 15
-100 21 -194 28 -197 15 -1 -5 -7 -13 -15 -17 -10 -7 -10 -9 -1 -9 11 0 12 -9
4 -49 -1 -2 -8 2 -16 9 -12 10 -15 10 -15 -4 0 -9 8 -16 20 -16 12 0 20 -6 19
-12 -5 -39 2 -58 21 -58 10 0 24 -8 29 -17 6 -10 11 -12 11 -5 0 6 7 12 15 12
18 0 18 5 -1 -60 -8 -29 -13 -61 -11 -71 6 -22 -16 -54 -31 -45 -6 4 -9 13 -5
21 3 8 0 15 -7 15 -17 0 -39 -30 -40 -52 0 -23 -46 -24 -58 -2 -7 12 -11 13
-17 5 -4 -7 -4 -15 -1 -18 3 -3 1 -12 -4 -18 -15 -18 16 -43 33 -26 9 9 9 14
-3 21 -12 8 -10 10 8 10 12 0 23 -3 23 -7 10 -60 1 -72 -36 -47 -15 10 -25 12
-25 5 0 -23 -2 -26 -22 -37 -19 -10 -18 -11 13 -18 20 -4 35 -2 37 4 2 5 11
10 20 10 13 0 14 -2 4 -8 -16 -11 18 -28 71 -37 23 -4 35 -10 31 -17 -4 -6 1
-8 16 -3 20 6 21 5 10 -15 -6 -12 -9 -28 -6 -36 3 -8 0 -14 -7 -14 -8 0 -8 -3
2 -9 9 -6 11 -18 7 -35 -5 -22 -3 -26 14 -26 22 0 30 40 8 40 -8 0 -7 4 3 10
11 6 15 18 11 36 -4 20 -2 25 8 19 9 -5 10 -2 5 14 -6 21 -5 22 47 15 69 -9
64 -4 68 -71 l2 -38 9 32 c8 28 12 31 39 27 18 -3 30 -1 30 6 0 17 30 45 30
28 1 -7 2 -43 3 -81 l2 -67 -37 0 c-22 0 -38 5 -38 11 0 8 -4 8 -15 -1 -15
-12 -38 -11 -210 9 -47 5 -84 6 -91 0 -6 -5 -24 -5 -45 1 -44 13 -42 13 -36
-10 3 -13 0 -20 -9 -20 -17 0 -19 -26 -1 -34 9 -5 9 -7 0 -12 -9 -4 -10 -11
-3 -24 7 -13 7 -21 0 -25 -5 -3 -10 -1 -10 4 0 6 -4 11 -10 11 -5 0 -10 -6
-10 -13 0 -14 38 -32 88 -42 18 -4 30 -11 26 -16 -3 -5 175 -9 448 -8 249 1
444 4 434 6 -15 4 -16 7 -5 14 10 6 10 9 2 9 -7 0 -13 5 -13 10 0 21 30 9 36
-15 4 -17 13 -25 29 -25 22 0 22 2 13 48 -5 26 -13 56 -18 67 -5 11 -12 31
-15 45 -12 63 -27 128 -36 155 -7 26 -8 23 -4 -15 2 -25 7 -53 10 -62 4 -10
-1 -17 -15 -21 -12 -3 -23 0 -25 6 -11 32 -25 139 -20 147 11 17 45 11 46 -7
0 -15 2 -15 9 2 12 29 12 98 0 90 -6 -4 -10 16 -9 54 1 55 4 62 27 74 29 14
66 107 58 147 -4 22 -1 26 22 28 74 6 186 94 210 167 8 22 27 67 44 99 26 51
30 67 26 119 -4 52 -2 60 14 65 10 2 18 8 18 13 0 5 6 6 14 3 11 -4 14 4 12
37 -1 24 -8 45 -14 47 -7 2 -10 7 -8 11 3 3 -4 18 -14 31 -19 25 -19 25 -34 5
-14 -19 -15 -17 -13 24 l1 43 29 -33 c59 -70 78 -106 84 -164 6 -60 15 -58 33
5 14 51 15 236 1 301 -8 39 -21 66 -43 88 -34 35 -104 79 -135 86 -10 2 -33
11 -52 21 -47 23 -106 37 -163 36 -27 0 -48 4 -48 8 0 5 -25 8 -56 6 -30 -1
-57 1 -60 5 -5 9 16 26 49 38 23 9 29 8 35 -7 6 -14 15 -16 47 -11 22 3 32 7
22 8 -10 0 -15 6 -12 11 8 13 55 13 55 0 0 -5 5 -10 11 -10 5 0 7 5 3 11 -4 8
1 9 17 4 13 -5 38 -7 54 -7 33 1 190 -78 190 -96 0 -16 36 -41 59 -42 14 0 17
5 12 23 -4 12 -9 58 -12 102 -3 44 -14 105 -24 135 -10 30 -21 72 -25 92 -4
29 -17 46 -56 77 -28 22 -66 45 -85 51 -23 8 -34 17 -30 25 6 17 -53 14 -171
-11 -34 -7 -19 19 20 34 17 7 39 17 47 21 8 5 30 6 48 3 20 -3 32 0 32 7 0 7
4 9 10 6 5 -3 18 -8 27 -10 21 -4 99 -29 128 -40 18 -7 17 -5 -4 18 -14 15
-21 27 -17 27 16 0 -19 33 -63 62 -41 26 -43 28 -19 28 16 0 40 -13 62 -34 38
-36 46 -35 20 3 -9 12 -37 31 -62 42 -25 11 -53 29 -63 40 -23 27 -99 39 -99
16 0 -16 -20 -27 -52 -27 -21 0 -21 0 -2 21 19 22 19 22 -6 14 -14 -4 -35 -13
-47 -21 -29 -18 -30 -7 -1 17 17 15 18 19 5 19 -28 0 -28 19 0 34 l28 15 -25
1 c-37 2 -168 22 -227 35 -13 3 -23 12 -23 20 0 8 -8 15 -19 15 -10 0 -31 16
-45 35 -40 52 -75 83 -131 116 -55 32 -67 35 -60 17 2 -7 -2 -21 -9 -31 -12
-16 -17 -16 -35 -5 -12 7 -21 20 -21 29 0 24 -10 29 -32 18 -17 -9 -19 -8 -13
10 3 12 2 21 -3 21 -12 0 -23 55 -16 74 4 11 12 13 31 5 48 -18 127 -5 93 16
-5 3 -10 14 -10 24 0 28 -46 54 -86 49 -33 -4 -34 -3 -34 34 0 29 4 38 18 38
16 1 16 1 0 14 -12 9 -18 27 -18 52 0 34 5 41 33 54 52 24 82 96 79 191 l-1
77 34 6 c20 4 44 2 56 -4 30 -17 42 -1 28 38 -12 34 -7 62 11 62 5 0 10 -6 10
-14 0 -8 14 -19 30 -25 31 -10 37 -25 21 -50 -6 -9 -5 -23 1 -37 9 -19 14 -21
30 -13 14 8 20 6 24 -6 10 -24 -13 -65 -35 -65 -11 0 -23 -5 -26 -11 -4 -6
-13 -8 -21 -5 -24 9 -15 -8 11 -20 19 -9 27 -9 35 1 6 7 26 15 45 18 20 3 47
15 62 27 25 19 28 20 39 5 7 -9 15 -40 19 -70 9 -72 25 -70 25 3 0 31 7 70 15
86 9 16 13 37 10 47 -8 25 11 33 46 19 25 -11 29 -18 29 -51 0 -21 -5 -50 -12
-64 -6 -14 -8 -28 -3 -33 4 -4 10 -1 13 7 3 8 16 25 30 38 17 16 22 26 15 35
-18 23 -31 75 -23 88 6 9 11 7 19 -9 16 -29 41 -27 41 4 0 13 10 33 22 45 17
16 19 23 10 32 -17 17 -15 29 3 22 16 -7 29 29 23 67 -3 25 -5 25 -70 12 -25
-5 -28 -2 -28 23 -1 16 -7 40 -14 53 -13 23 -72 51 -108 51 -24 0 -23 15 2 40
19 19 20 19 53 -16 29 -31 36 -34 59 -25 32 12 45 41 23 53 -8 5 -15 22 -15
38 0 37 -27 40 -72 9 -34 -24 -46 -19 -31 13 15 34 6 47 -46 70 -81 34 -164 9
-164 -51 0 -34 -7 -37 -36 -19 -15 9 -24 8 -44 -5 -34 -22 -26 -59 19 -81 60
-28 97 -17 72 23 -7 11 -9 23 -6 26 7 7 68 -22 68 -32 0 -15 -73 -93 -87 -93
-8 0 -29 11 -45 26 -63 52 -120 6 -85 -69 10 -19 17 -44 17 -56 0 -12 6 -21
15 -21 18 0 20 -30 3 -31 -7 -1 -30 -2 -50 -3 -20 -2 -48 -10 -62 -19 -15 -10
-27 -13 -31 -7 -3 6 -17 10 -31 10 -24 0 -24 1 -25 93 -1 50 -2 97 -3 102 -1
6 -6 36 -10 68 -5 31 -12 60 -17 63 -5 3 -7 9 -5 13 3 4 -9 22 -25 41 -17 18
-31 43 -32 55 -2 21 -60 85 -77 85 -4 0 -13 24 -20 53 -7 30 -21 60 -35 72
-12 11 -30 43 -39 72 -10 28 -24 57 -32 64 -12 10 -13 9 -7 -7 6 -16 3 -16
-29 4 -37 23 -48 26 -48 15z m-597 -1691 c-5 -30 -1 -37 43 -77 27 -25 43 -45
37 -45 -6 0 -16 -15 -23 -32 -7 -18 -14 -27 -17 -20 -7 19 -27 14 -52 -11 -19
-21 -20 -26 -7 -36 12 -10 17 -9 28 8 7 12 20 21 29 21 9 0 31 14 49 30 18 17
35 29 37 26 5 -5 -93 -152 -120 -179 -13 -13 -19 -14 -22 -5 -3 7 -12 33 -20
57 l-15 45 31 32 c40 41 34 73 -11 66 l-30 -4 0 66 c0 52 5 74 22 101 23 33
23 34 35 12 7 -12 10 -36 6 -55z m224 -259 c15 -13 27 -23 29 -23 1 0 0 17 -2
38 -4 28 -3 33 5 20 7 -10 19 -14 31 -11 14 4 30 -6 56 -33 28 -31 35 -34 29
-16 -7 25 -4 26 42 10 34 -13 37 -22 24 -82 -5 -26 -7 -28 -20 -13 -18 23 -30
21 -24 -3 3 -11 10 -20 15 -20 5 0 6 -5 3 -10 -4 -6 -1 -17 5 -25 7 -8 9 -15
6 -15 -11 0 -36 27 -36 39 0 6 -4 11 -10 11 -5 0 -20 10 -32 23 -43 41 -63 55
-88 62 -20 6 -23 5 -12 -6 6 -7 12 -36 12 -64 0 -28 5 -56 12 -63 9 -9 9 -12
-2 -12 -12 0 -15 -16 -17 -66 -1 -37 -6 -70 -12 -74 -7 -3 -11 -28 -10 -56 1
-27 -1 -59 -5 -71 -6 -18 -1 -25 23 -38 17 -8 32 -23 32 -33 1 -9 3 -43 4 -74
l3 -58 -44 0 c-25 0 -44 -5 -44 -11 0 -7 -15 -9 -42 -4 -27 4 -38 3 -30 -3 10
-7 10 -11 -2 -22 -19 -15 -51 -6 -39 12 12 20 10 32 -9 46 -9 7 -15 19 -11 28
6 16 -17 16 -29 -1 -10 -14 -122 -12 -205 4 l-73 14 0 84 c0 49 4 83 10 83 12
0 13 -10 10 -71 -1 -26 3 -50 9 -53 5 -4 8 -13 4 -21 -3 -10 -1 -13 9 -10 7 3
15 20 16 38 6 88 5 87 90 87 78 0 110 -9 98 -28 -3 -6 4 -14 16 -18 22 -7 22
-7 3 -15 -11 -4 -14 -8 -7 -8 7 -1 10 -5 7 -11 -3 -5 -2 -10 4 -10 6 0 8 -8 5
-17 -5 -16 -4 -15 6 1 7 10 10 33 7 52 -5 31 -3 34 18 34 15 0 26 7 31 22 6
20 7 21 17 2 24 -45 67 -48 67 -4 0 17 -3 30 -8 30 -4 0 -7 20 -7 45 0 32 -5
47 -15 50 -22 7 -22 145 0 162 8 6 18 9 22 7 13 -8 19 72 7 101 -14 34 -12 77
4 114 l11 26 4 -25 c2 -14 15 -35 29 -47z m-309 -4 c10 -38 8 -44 -10 -59 -12
-9 -23 -25 -25 -36 -9 -53 -8 -59 15 -60 30 -2 35 -8 27 -33 -4 -12 -12 -18
-21 -14 -7 3 -14 0 -14 -7 0 -6 5 -8 12 -4 8 5 9 2 5 -9 -3 -10 -2 -17 3 -17
6 0 10 5 10 11 0 5 4 8 8 5 5 -3 9 0 10 7 3 33 29 109 34 101 13 -20 17 -82
10 -134 -6 -50 -9 -55 -34 -58 -16 -2 -28 0 -28 5 0 5 -17 7 -39 5 -37 -4 -38
-3 -44 35 -10 55 -8 101 2 108 6 3 10 13 10 23 0 145 44 229 69 131z m1057
-242 c30 -32 53 -63 50 -68 -4 -5 1 -9 9 -9 9 0 17 -4 17 -10 1 -5 2 -14 3
-18 0 -5 16 -23 34 -41 17 -18 32 -37 32 -42 0 -5 15 0 33 11 52 32 62 24 27
-20 -28 -35 -36 -53 -39 -82 -1 -5 -11 -8 -24 -8 -24 0 -57 -31 -57 -55 0 -7
-5 -17 -10 -20 -6 -4 -8 -15 -5 -26 5 -15 1 -19 -19 -19 -14 0 -26 -4 -26 -10
0 -5 9 -10 20 -10 25 0 27 -20 3 -21 -10 -1 -22 -1 -26 0 -5 1 -6 -3 -2 -9 3
-5 2 -10 -4 -10 -6 0 -8 -8 -4 -17 3 -10 3 -15 -2 -11 -15 14 -44 -37 -65
-117 -6 -22 -8 -25 -9 -9 -1 12 5 39 13 61 13 38 13 43 -10 81 -13 22 -31 42
-39 46 -8 3 -15 12 -15 21 0 8 -5 15 -11 15 -7 0 -9 11 -6 28 4 20 -2 42 -22
76 -16 27 -31 44 -33 40 -3 -5 -3 -3 -1 5 2 7 -6 28 -17 47 -18 28 -25 32 -43
25 -12 -5 -26 -9 -32 -10 -5 0 -11 -5 -11 -11 -1 -5 -3 -11 -4 -12 -1 -2 -4
-13 -5 -25 -3 -27 7 -29 29 -7 19 19 21 6 2 -18 -7 -10 -16 -15 -19 -11 -4 3
-10 -2 -13 -12 -4 -9 -2 -20 5 -25 9 -5 7 -9 -7 -12 -18 -5 -20 0 -20 56 0 34
5 64 12 69 8 5 8 9 -1 15 -14 9 -6 92 9 92 5 0 6 5 3 10 -3 6 -1 10 5 10 8 0
7 6 -1 22 -10 18 -9 20 5 15 9 -4 28 -2 42 3 29 11 84 63 84 79 0 5 23 9 55 8
52 -2 56 -5 110 -60z m-577 26 c13 -8 21 -17 18 -20 -3 -4 -1 -12 5 -20 9 -9
8 -13 0 -13 -14 0 -15 -47 -1 -55 6 -3 10 -22 10 -41 0 -19 -4 -33 -9 -30 -15
9 -31 -18 -21 -34 12 -19 12 -30 2 -30 -8 0 -12 15 -13 54 0 10 -9 20 -19 23
-24 6 -50 72 -50 126 0 24 -6 49 -12 56 -11 11 -6 12 27 6 22 -3 51 -13 63
-22z m967 -149 c-16 -56 -16 -56 9 -89 15 -19 26 -42 26 -53 0 -11 10 -27 23
-35 19 -14 20 -18 7 -26 -13 -9 -8 -15 11 -13 4 1 5 -7 2 -18 -5 -17 -7 -17
-20 -5 -8 8 -20 15 -26 15 -8 0 -8 -3 -2 -8 24 -17 12 -48 -17 -43 -4 0 -14
-9 -23 -22 -8 -12 -33 -47 -55 -77 -38 -52 -39 -55 -19 -62 22 -8 17 -28 -7
-28 -8 0 -14 -4 -14 -10 0 -5 5 -10 11 -10 8 0 -19 -58 -45 -97 -1 -1 -19 2
-41 7 -25 6 -44 5 -49 0 -13 -13 -29 -13 -21 0 12 20 -18 38 -50 29 -42 -12
-49 -11 -35 6 7 8 16 13 20 10 5 -3 7 7 5 22 -4 28 51 153 66 153 4 0 11 9 14
20 4 11 21 43 39 70 18 28 46 80 61 116 25 58 31 65 52 61 18 -3 21 -1 12 9
-8 10 -7 19 4 34 7 11 17 17 20 14 3 -4 9 7 12 22 3 16 13 45 22 64 24 50 29
15 8 -56z m-945 -174 c0 -13 7 -20 20 -20 14 0 20 -7 21 -22 l2 -23 4 23 c6
29 29 23 25 -6 -2 -13 2 -22 9 -22 9 0 8 -4 -3 -12 -9 -7 -18 -25 -22 -40 -14
-62 -47 -69 -133 -26 -34 17 -40 24 -31 35 9 11 13 12 19 1 6 -8 9 -9 9 -2 0
6 -7 17 -15 24 -12 10 -13 15 -3 28 10 12 10 16 1 19 -26 9 18 37 53 35 27 -2
32 1 28 13 -3 8 -1 15 5 15 6 0 11 -9 11 -20z m173 -39 c5 -1 7 -15 5 -33 -2
-17 2 -33 8 -35 6 -2 11 4 11 14 0 40 4 50 21 52 27 4 145 0 153 -5 4 -2 -3
-37 -15 -77 -16 -52 -28 -75 -44 -82 -12 -5 -21 -16 -19 -25 1 -9 -7 -16 -20
-18 -16 -2 -23 2 -23 13 0 24 -24 12 -28 -13 -3 -20 7 -27 31 -23 5 1 6 -3 3
-8 -4 -5 -2 -12 4 -16 5 -3 10 1 10 9 0 8 4 17 8 20 5 3 8 -8 8 -24 0 -25 -3
-29 -22 -24 -12 3 -25 1 -28 -5 -5 -7 5 -11 26 -12 32 -1 32 -1 -7 -9 -40 -8
-61 3 -48 24 12 19 2 111 -13 122 -8 6 -15 22 -15 35 l-2 24 -4 -24 c-5 -23
-5 -23 -19 -2 -9 13 -21 18 -32 14 -11 -4 -9 1 7 13 21 18 22 21 7 33 -13 11
-16 11 -17 0 0 -8 -5 -3 -10 11 -7 16 -7 26 0 28 5 2 7 10 4 18 -4 12 1 14 23
10 16 -2 33 -5 37 -5z m914 -22 c-5 -17 1 -21 31 -18 4 0 6 7 4 16 -6 26 19 3
34 -33 21 -49 17 -74 -16 -124 -31 -46 -57 -118 -90 -245 -39 -149 -60 -206
-83 -215 -13 -5 -16 -9 -7 -10 13 0 13 -1 0 -10 -8 -5 -11 -10 -6 -10 5 0 3
-7 -4 -15 -22 -27 -84 -19 -131 18 -41 31 -148 187 -129 187 6 0 20 -16 32
-35 13 -19 36 -39 52 -45 37 -13 33 -14 47 12 10 18 8 24 -7 35 -18 13 -18 14
4 19 15 5 25 19 34 48 6 22 15 45 20 50 4 6 8 18 8 27 0 23 87 129 106 129 9
0 12 5 8 11 -3 6 -2 14 4 18 11 7 72 136 72 153 0 5 -4 6 -10 3 -7 -4 -7 3 0
22 9 24 8 26 -3 11 -17 -22 -30 -12 -17 12 13 25 54 15 47 -11z m-1432 -199
c6 -4 18 -6 29 -4 10 1 29 -1 42 -6 21 -8 23 -12 13 -37 -6 -15 -10 -29 -10
-30 6 -20 -1 -73 -9 -68 -5 3 -10 2 -10 -4 0 -5 3 -11 8 -14 4 -2 1 -2 -6 0
-8 1 -33 3 -58 3 l-43 0 3 45 c2 25 0 47 -3 50 -6 3 -7 44 -2 66 2 8 34 8 46
-1z m642 -100 c16 0 27 -7 30 -20 7 -25 20 -26 26 -2 3 9 5 1 6 -19 0 -20 -2
-39 -6 -43 -5 -4 -12 -26 -18 -49 -5 -23 -13 -40 -17 -37 -4 3 -14 -4 -23 -15
-9 -11 -14 -14 -10 -7 3 6 3 12 -2 13 -4 1 -25 3 -47 5 -21 1 -39 4 -40 6 -1
2 0 40 2 85 3 75 5 82 25 86 12 2 28 3 35 1 8 -2 25 -4 39 -4z m118 -20 c3 -5
14 -10 23 -10 10 0 34 -11 54 -25 39 -26 60 -33 40 -13 -22 22 -13 38 22 38
45 0 54 -15 24 -41 -16 -14 -19 -22 -10 -25 16 -7 16 -25 0 -21 -17 3 -19 -43
-2 -50 11 -4 10 -8 -3 -21 -10 -11 -12 -17 -4 -20 10 -3 16 -42 6 -42 -12 0
-191 83 -196 92 -7 12 6 91 21 117 7 14 6 21 -3 24 -7 3 -5 6 5 6 9 1 20 -3
23 -9z m-730 -210 c60 -13 217 -56 245 -67 14 -6 30 -8 35 -6 10 3 10 -134 0
-164 -4 -12 -33 -7 -90 17 -45 18 -114 32 -134 25 -12 -3 -21 -3 -21 2 0 5
-24 14 -52 20 -29 6 -69 16 -88 22 l-35 10 33 -3 33 -3 -3 66 c-3 56 -6 66
-20 65 -10 -1 -15 3 -12 8 3 5 12 7 20 4 8 -3 14 -1 14 4 0 12 22 12 75 0z"/>
<path d="M3402 3556 c4 -36 4 -37 -26 -30 -17 3 -35 10 -40 15 -17 16 -41 10
-55 -13 -10 -16 -10 -23 -2 -26 13 -4 15 -32 2 -32 -6 0 -12 4 -16 9 -3 6 -17
4 -33 -5 -15 -7 -33 -14 -39 -14 -7 0 -13 -4 -13 -9 0 -5 7 -8 17 -7 9 0 25
-14 36 -32 17 -29 17 -35 5 -55 -8 -12 -18 -33 -21 -47 -5 -20 -1 -27 20 -37
15 -7 33 -13 40 -13 20 0 63 72 63 106 0 17 3 34 6 37 7 7 77 -63 108 -108
l19 -28 31 38 31 37 43 -17 c33 -14 45 -15 57 -5 14 12 81 10 138 -5 l27 -7 0
68 c0 73 -12 93 -67 122 -28 15 -33 15 -33 -2 0 -7 -7 -20 -16 -27 -14 -11
-19 -10 -38 11 -33 38 -80 60 -125 60 -29 0 -41 4 -41 14 0 18 -6 22 -49 31
l-33 7 4 -36z"/>
<path d="M3133 3164 c-42 -21 -57 -40 -72 -91 -6 -24 -18 -43 -25 -43 -19 0
-27 37 -10 51 21 17 17 41 -11 67 l-24 23 -23 -21 c-12 -11 -28 -18 -35 -15
-11 3 -13 -19 -9 -114 5 -142 12 -161 65 -161 21 0 51 5 68 10 27 10 29 14 27
55 -2 37 1 46 22 60 14 9 24 24 22 33 -4 28 11 42 48 42 28 0 36 -5 44 -26 12
-30 0 -51 -31 -56 -33 -5 -17 -23 21 -23 73 -2 90 -5 90 -20 0 -8 -14 -17 -35
-21 -41 -7 -66 -31 -42 -40 8 -3 18 -16 21 -29 4 -17 17 -25 52 -34 25 -7 58
-20 72 -31 29 -21 193 -40 350 -40 l82 0 0 141 0 140 -22 -15 c-12 -9 -33 -16
-45 -16 -14 0 -23 -6 -23 -15 0 -23 -19 -18 -31 9 -7 14 -17 22 -24 20 -7 -3
-20 4 -28 16 -13 19 -21 20 -66 14 -43 -6 -56 -12 -78 -40 -21 -28 -30 -33
-52 -27 -37 9 -69 35 -73 58 -2 12 -21 28 -49 42 -46 21 -69 59 -53 85 18 29
-71 38 -123 12z"/>
<path d="M180 3142 c0 -5 -9 -20 -21 -33 -11 -13 -25 -31 -29 -39 -5 -8 -12
-11 -16 -7 -4 4 3 21 15 38 13 17 21 32 19 35 -2 2 -24 0 -49 -4 -52 -9 -61
-31 -30 -73 11 -15 18 -34 15 -42 -7 -18 128 -35 349 -44 162 -6 162 -6 144
14 -13 15 -36 22 -85 27 -83 8 -98 16 -83 44 6 11 11 23 11 27 0 13 -95 45
-135 45 -24 0 -47 5 -50 10 -7 12 -55 13 -55 2z"/>
<path d="M2659 3115 c-3 -2 -24 -6 -49 -9 -25 -2 -46 -5 -46 -5 -3 -1 -17 -55
-18 -66 -1 -5 -21 -13 -46 -18 -41 -8 -43 -10 -25 -23 10 -8 26 -14 36 -14 9
0 22 -7 29 -15 16 -19 89 -19 114 0 25 19 54 19 99 0 50 -21 66 -19 76 9 5 13
17 26 26 30 32 12 3 26 -54 26 -57 0 -91 18 -91 47 0 11 -45 45 -51 38z"/>
<path d="M1596 274 c-9 -8 -16 -26 -16 -39 0 -34 -10 -55 -26 -55 -8 0 -14 -4
-14 -9 0 -5 6 -9 13 -8 33 1 57 -4 57 -12 0 -5 -6 -8 -12 -7 -7 0 -15 -3 -18
-9 -3 -5 6 -9 20 -10 14 0 31 -4 39 -9 10 -6 12 -6 7 2 -11 19 15 14 31 -5 13
-17 14 -16 8 5 -5 17 -2 22 12 22 14 0 18 8 19 35 0 18 -3 32 -8 29 -4 -3 -8
0 -8 7 0 8 -4 8 -12 2 -7 -6 -21 -10 -30 -10 -20 0 -32 23 -17 32 5 4 7 11 4
16 -8 12 18 12 31 0 5 -5 18 -5 29 -1 22 8 23 8 -44 29 -44 14 -47 14 -65 -5z"/>
<path d="M1785 242 c-10 -10 -5 -23 6 -16 14 8 7 -53 -10 -84 -9 -17 -9 -22 1
-22 8 0 6 -5 -4 -11 -24 -13 -23 -25 3 -32 19 -5 21 -11 15 -42 l-7 -36 98 3
c93 3 98 4 101 26 2 12 6 22 10 22 4 0 7 38 7 85 0 77 -2 86 -20 92 -11 4 -28
6 -39 4 -10 -1 -16 1 -13 6 5 9 -139 14 -148 5z"/>
</g>
</svg>
