<?xml version="1.0" standalone="no"?>
<!DOCTYPE svg PUBLIC "-//W3C//DTD SVG 20010904//EN"
 "http://www.w3.org/TR/2001/REC-SVG-20010904/DTD/svg10.dtd">
<svg version="1.0" xmlns="http://www.w3.org/2000/svg"
 width="380.000000pt" height="470.000000pt" viewBox="0 0 380.000000 470.000000"
 preserveAspectRatio="xMidYMid meet">
<metadata>
Created by potrace 1.15, written by Peter Selinger 2001-2017
</metadata>
<g transform="translate(0.000000,470.000000) scale(0.100000,-0.100000)"
fill="#000000" stroke="none">
<path d="M1000 4150 c-14 -5 -70 -14 -125 -21 -55 -7 -113 -18 -130 -25 -16
-6 -52 -15 -80 -19 -27 -4 -57 -11 -65 -16 -9 -5 -2 -6 20 -3 l35 6 -27 -15
c-65 -36 -126 -93 -171 -159 -26 -38 -43 -67 -37 -63 32 20 -37 -148 -86 -207
-44 -54 -41 -110 6 -107 11 1 10 3 -2 6 -24 6 -23 15 5 41 31 29 35 28 33 -8
-1 -16 1 -30 6 -30 4 0 8 -7 8 -15 0 -8 -9 -15 -19 -15 -11 0 -23 -4 -26 -10
-4 -6 9 -10 30 -10 34 0 37 -2 31 -24 -3 -13 -9 -31 -12 -40 -3 -9 -1 -16 5
-16 6 0 11 4 11 10 0 5 10 18 22 30 24 22 47 28 31 8 -6 -7 -13 -21 -16 -31
-6 -16 -3 -18 26 -12 l32 7 -22 -24 c-30 -32 -29 -44 5 -65 15 -10 43 -35 63
-55 20 -21 42 -38 50 -38 7 0 2 8 -11 17 -32 22 -51 47 -39 51 5 2 29 -4 54
-14 l45 -17 32 34 c18 19 44 43 57 54 l23 20 -7 -35 c-10 -47 -24 -66 -62 -87
-36 -19 -44 -34 -14 -26 40 10 81 67 92 129 27 148 37 158 92 101 18 -18 56
-52 85 -76 28 -24 52 -50 52 -57 0 -17 -5 -17 -32 -3 -30 16 -88 3 -88 -21 0
-13 -5 -17 -20 -13 -11 3 -27 0 -35 -7 -8 -7 -22 -10 -30 -6 -24 9 -18 -22 9
-49 27 -27 25 -34 -23 -138 -17 -37 -21 -57 -15 -92 3 -25 9 -45 13 -45 3 0 6
-13 7 -30 1 -16 7 -37 15 -46 7 -9 14 -22 14 -28 0 -19 116 -186 137 -197 11
-6 29 -9 39 -6 10 3 22 1 25 -4 7 -12 36 -8 46 6 5 6 8 6 8 -1 0 -14 91 3 101
18 4 6 12 9 17 7 13 -5 -42 -140 -120 -296 -34 -70 -48 -108 -43 -120 11 -24
7 -46 -15 -96 -11 -23 -20 -57 -20 -76 0 -18 -5 -50 -11 -71 -9 -29 -8 -66 5
-163 9 -69 13 -139 10 -156 -10 -48 4 -97 41 -146 30 -38 36 -57 44 -127 6
-46 13 -105 17 -133 4 -27 3 -47 -1 -43 -4 4 -18 3 -31 -2 -19 -8 -29 -5 -46
12 l-21 21 -30 -36 c-31 -40 -60 -47 -76 -19 -8 13 -14 15 -28 6 -12 -8 -27
-8 -51 0 -26 8 -35 7 -42 -5 -5 -7 -6 -17 -2 -21 4 -4 59 -10 122 -13 179 -10
164 2 156 -120 -4 -56 -4 -105 1 -108 4 -2 22 -2 39 0 l32 5 -2 61 -1 62 36 3
c35 3 37 1 53 -45 34 -93 39 -104 73 -161 40 -66 43 -99 14 -162 -24 -53 -27
-105 -7 -113 8 -3 25 -33 37 -67 23 -64 48 -90 86 -90 26 0 30 -20 38 -205 3
-66 7 -134 10 -152 l4 -31 -67 -7 c-37 -3 -78 -2 -92 3 -14 5 -31 7 -39 4 -8
-3 -11 0 -7 7 5 7 -1 11 -16 11 -13 0 -30 6 -37 13 -11 10 -13 9 -9 -3 4 -12
-3 -15 -31 -14 -22 1 -35 6 -33 14 1 6 -2 9 -7 6 -5 -3 -14 1 -21 9 -7 8 -17
12 -22 9 -6 -4 -14 -1 -18 6 -5 9 -36 14 -92 15 -109 3 -110 3 -103 14 3 5 35
13 71 16 51 6 68 4 75 -6 6 -9 9 -10 9 -2 0 6 10 14 23 16 18 4 17 4 -6 6 -23
1 -27 5 -23 19 7 20 8 20 -69 25 -27 3 -75 7 -105 11 -47 6 -127 12 -193 15
-12 1 -16 5 -11 13 5 9 2 9 -9 -1 -12 -9 -17 -10 -17 -2 0 7 -5 9 -10 6 -5 -3
-10 -2 -10 4 0 6 23 10 57 8 38 -1 58 2 60 11 3 7 -5 12 -21 13 -14 1 -34 2
-43 3 -132 15 -163 21 -193 34 l-35 15 65 9 c38 5 68 15 73 23 4 8 16 15 25
15 15 1 15 2 -1 11 -10 6 -25 8 -33 5 -12 -4 -12 -2 -4 14 8 16 7 20 -5 21 -8
1 -19 3 -25 4 -5 1 -15 3 -21 4 -5 0 -7 6 -3 13 5 7 3 8 -6 3 -10 -6 -9 -11 5
-21 10 -7 21 -11 26 -9 4 3 10 1 13 -4 4 -5 -2 -8 -11 -6 -10 2 -26 4 -35 4
-10 1 -18 9 -18 19 0 9 -4 13 -8 7 -11 -15 -142 -13 -142 3 0 7 -12 18 -26 24
-21 10 -27 9 -35 -3 -5 -8 -9 -9 -9 -3 0 7 -7 15 -16 18 -10 4 -13 2 -8 -6 4
-6 3 -8 -3 -5 -6 4 -22 11 -37 17 -16 6 -24 15 -20 21 4 8 9 7 15 -2 7 -12 9
-12 9 0 0 7 6 11 15 7 8 -3 15 -1 15 4 0 6 7 10 15 10 8 0 15 5 15 12 0 6 -3
8 -7 5 -3 -4 -12 -2 -20 5 -7 6 -36 11 -63 12 -28 1 -50 5 -50 10 0 4 18 6 39
4 32 -3 41 0 44 14 3 11 15 18 30 18 13 0 40 6 58 14 19 7 41 11 49 9 10 -3
11 -2 4 4 -6 4 -10 16 -8 26 2 17 1 17 -22 2 -17 -11 -23 -12 -22 -3 2 9 -9
13 -32 13 -19 0 -38 5 -42 11 -4 6 -19 10 -33 9 -31 -4 -33 10 -4 26 15 8 19
8 15 0 -5 -7 3 -11 19 -11 15 0 24 4 20 10 -3 6 2 10 12 10 17 1 17 1 0 11
-10 6 -21 9 -23 6 -10 -10 -89 21 -92 36 -4 22 77 45 172 49 52 2 81 7 84 16
3 9 -22 12 -101 12 -80 0 -109 4 -120 15 -11 11 -22 12 -44 6 -15 -5 -45 -12
-65 -16 l-38 -6 0 -439 0 -440 464 0 c256 0 467 4 470 9 3 5 25 5 48 0 53 -10
122 -11 132 -2 12 12 38 14 136 13 52 0 121 -1 152 0 31 0 60 -4 63 -10 4 -6
215 -10 564 -10 l559 0 7 27 c10 37 12 112 3 106 -12 -7 -10 18 13 161 36 229
49 287 115 511 43 144 46 161 41 238 -4 66 -3 79 11 85 9 3 27 18 39 33 41 48
250 91 289 58 7 -6 33 -7 64 -3 61 8 70 0 70 -61 0 -22 7 -74 16 -116 l17 -76
-33 -104 c-18 -57 -40 -120 -50 -139 -9 -19 -20 -51 -23 -70 -3 -19 -11 -48
-18 -65 -7 -16 -13 -34 -14 -40 0 -5 -7 -9 -15 -7 -11 3 -11 1 0 -13 12 -15
12 -18 -2 -26 -9 -5 -21 -31 -28 -59 -7 -27 -16 -50 -20 -50 -4 0 -13 -13 -19
-30 -9 -27 -20 -35 -44 -31 -19 3 -35 -25 -25 -44 9 -15 8 -17 -11 -12 -14 3
-21 0 -21 -9 0 -8 -16 -16 -40 -20 -22 -4 -40 -11 -40 -16 0 -5 9 -6 21 -3 16
5 20 3 17 -12 -2 -13 3 -17 20 -16 12 2 22 -2 22 -8 0 -5 -4 -8 -9 -4 -5 3
-12 1 -16 -5 -4 -6 -11 -7 -17 -4 -6 4 -6 -1 1 -14 6 -11 16 -22 23 -24 9 -3
9 -6 1 -11 -17 -10 -55 34 -49 56 2 11 2 16 -1 13 -7 -7 -43 23 -43 36 0 20
-56 57 -85 57 l-30 0 38 -20 c20 -11 37 -24 37 -30 0 -6 3 -8 8 -6 4 3 16 -4
26 -14 18 -18 18 -19 -8 -29 -34 -13 -53 -13 -61 0 -3 6 -14 10 -23 10 -10 -1
-2 -9 18 -20 23 -12 39 -15 47 -8 18 15 74 -18 66 -39 -4 -11 -8 -13 -11 -5
-2 7 -8 12 -13 12 -4 0 -6 -7 -3 -15 8 -20 -6 -19 -22 3 -11 13 -15 14 -22 4
-5 -7 -16 -10 -25 -6 -9 3 -17 2 -17 -4 0 -5 7 -12 15 -16 9 -3 12 -12 8 -21
-4 -12 -8 -13 -13 -5 -4 7 -13 9 -19 6 -6 -4 -11 -1 -11 7 0 8 -7 18 -16 21
-21 8 -26 3 -19 -17 7 -17 38 -30 75 -31 17 -1 25 -6 24 -18 -1 -10 2 -16 6
-13 5 3 11 1 15 -5 4 -6 -4 -10 -19 -10 -14 0 -28 -4 -31 -10 -4 -7 168 -10
509 -10 l516 0 0 429 0 429 -30 75 c-17 42 -30 81 -30 87 0 9 10 11 30 7 25
-6 30 -3 30 14 0 15 -5 19 -17 15 -34 -11 -49 12 -103 164 -21 60 -48 127 -60
149 -11 23 -32 74 -46 114 -14 39 -32 86 -39 102 -7 17 -17 42 -20 58 -4 15
-11 27 -16 27 -5 0 -6 7 -3 15 4 8 1 15 -6 15 -6 0 -8 5 -4 11 3 6 1 15 -6 19
-7 4 -14 30 -15 56 -5 95 -96 382 -176 556 -40 88 -53 130 -60 188 -6 57 -16
91 -43 140 -47 87 -73 143 -101 217 -13 35 -36 82 -50 107 -24 41 -128 146
-171 173 -16 10 -16 12 -3 12 9 1 22 -6 29 -14 7 -8 17 -15 23 -15 5 0 2 9 -8
20 -21 23 -79 44 -106 37 -10 -3 -22 -1 -25 4 -3 5 -17 9 -32 9 -15 0 -52 3
-82 6 -40 4 -51 2 -40 -5 12 -9 9 -11 -15 -12 -16 -1 -38 -2 -47 -3 -9 -1 -24
-10 -32 -21 l-15 -20 -1 20 c-1 19 -1 19 -14 2 -12 -16 -14 -16 -20 -1 -5 13
-9 14 -20 5 -12 -10 -13 -8 -9 8 3 11 15 22 27 25 11 3 -17 3 -64 1 -126 -6
-379 -44 -426 -65 l-40 -17 -18 48 -17 49 -49 0 c-27 0 -52 5 -56 11 -7 12
-18 83 -34 239 -13 116 -34 244 -45 275 -5 16 -5 17 4 5 9 -13 11 -13 11 1 0
31 -12 79 -20 74 -8 -5 -46 34 -43 44 2 3 -16 15 -40 26 -23 11 -46 30 -52 43
-5 12 -28 29 -51 38 -35 13 -43 22 -55 62 -24 76 -43 82 -262 85 -102 1 -183
5 -180 10 5 8 -3 8 -37 -3z m116 -200 c13 0 39 -13 57 -30 19 -16 39 -30 45
-30 17 0 52 -42 52 -61 0 -17 9 -29 86 -111 26 -28 31 -38 19 -38 -24 0 -178
40 -190 50 -19 15 -120 44 -145 41 -33 -3 -120 -45 -148 -72 -13 -11 -26 -19
-29 -16 -3 3 -11 1 -18 -6 -9 -8 -10 -21 -3 -46 17 -60 -9 -71 -140 -55 -47 5
-56 3 -87 -21 -39 -29 -40 -27 -25 58 19 100 65 196 122 251 49 48 51 49 65
31 13 -17 15 -17 10 -2 -4 9 -3 17 2 17 4 0 18 9 30 19 16 14 38 19 83 20 33
0 64 3 67 7 3 3 33 3 65 0 32 -3 69 -6 82 -6z m88 -368 c28 2 41 8 41 18 0 12
15 15 78 14 87 -2 102 -10 119 -65 6 -22 16 -39 21 -39 6 0 7 -17 2 -42 -4
-24 -7 -55 -6 -70 1 -16 -3 -28 -9 -28 -5 0 -10 -11 -10 -25 0 -14 -4 -25 -9
-25 -5 0 -7 -9 -4 -20 5 -18 3 -19 -20 -11 -30 12 -41 4 -24 -17 10 -13 9 -15
-6 -9 -11 4 -20 1 -23 -8 -4 -9 -19 -15 -38 -15 -22 0 -34 -6 -41 -22 -14 -31
-28 -32 -58 -4 -37 34 -90 48 -143 36 -24 -6 -52 -6 -64 -2 -20 7 -20 9 -6 21
23 19 20 45 -9 91 l-25 40 22 0 c40 1 104 37 133 75 29 37 34 68 21 130 l-6
30 11 -28 c10 -25 15 -28 53 -25z m504 26 c31 -34 42 -72 42 -141 0 -64 -10
-88 -63 -152 l-25 -30 34 -67 c27 -54 34 -79 34 -125 0 -32 5 -123 12 -203 13
-163 5 -246 -25 -244 -9 1 -19 -6 -22 -16 -6 -19 -45 -68 -45 -56 0 4 7 17 16
31 15 23 14 23 -8 18 -13 -3 -39 -20 -58 -38 -43 -40 -65 -48 -80 -30 -10 11
-6 16 17 22 15 4 31 7 35 8 3 0 10 4 15 9 5 5 3 6 -4 2 -7 -4 -13 -4 -13 1 0
4 -3 18 -6 31 -5 17 -2 22 13 22 27 0 35 10 22 27 -13 15 -6 16 40 7 17 -4 29
-9 26 -13 -5 -10 13 -37 20 -30 10 11 14 49 5 49 -5 0 -16 15 -25 32 -9 18
-11 28 -4 21 16 -16 49 19 42 46 -6 24 -28 28 -36 7 -4 -10 -1 -13 7 -10 8 3
17 0 22 -7 5 -9 2 -10 -9 -6 -10 3 -17 2 -17 -4 0 -6 -4 -8 -9 -4 -6 3 -10 13
-10 23 0 15 -7 62 -10 71 0 2 -7 -2 -15 -8 -8 -7 -17 -8 -20 -3 -8 13 21 35
35 27 7 -5 6 1 -2 16 -7 13 -13 28 -14 32 0 4 -6 12 -14 16 -8 5 -11 16 -7 26
5 13 2 16 -9 11 -9 -3 -13 -2 -10 4 3 6 1 10 -5 10 -6 0 -8 5 -4 11 4 8 9 7
15 -2 7 -11 9 -9 9 6 0 11 -4 27 -9 35 -6 8 -7 18 -4 24 11 17 13 89 4 123 -9
31 -7 38 20 64 35 34 36 38 5 32 -20 -4 -28 1 -42 28 -20 39 -28 141 -11 151
11 7 37 -14 37 -31 0 -6 7 -11 16 -11 8 0 12 5 9 10 -3 6 1 10 9 10 8 0 18 -4
21 -10 10 -16 25 -12 25 8 0 11 -16 24 -47 36 -41 17 -44 20 -25 27 12 5 24
20 28 34 9 36 33 28 62 -20 13 -22 21 -32 18 -23 -2 9 -10 35 -16 57 -11 43
-21 48 -64 31 -27 -10 -56 -4 -56 11 0 13 52 38 81 39 14 0 35 -10 47 -22z
m-789 -28 c-7 -5 -9 -18 -5 -34 4 -16 11 -24 18 -20 6 4 17 -1 25 -12 12 -16
18 -17 59 -6 62 17 118 41 111 48 -3 3 -11 2 -19 -2 -7 -4 -31 -9 -53 -11
l-40 -4 54 26 c63 30 75 24 65 -29 -13 -74 -76 -120 -155 -114 -41 3 -45 6
-81 63 -43 70 -46 93 -15 104 26 10 56 3 36 -9z m2105 -1962 c57 3 90 -1 140
-18 66 -22 127 -66 125 -92 0 -10 -2 -10 -6 0 -2 6 -10 9 -15 6 -7 -4 -8 -2
-4 4 14 23 -40 43 -123 45 -45 1 -81 4 -81 7 0 3 10 6 21 7 27 2 33 8 24 23
-5 9 -24 10 -59 6 -28 -4 -61 -7 -73 -8 -13 0 -23 -3 -23 -7 0 -4 -26 -15 -57
-25 -79 -26 -142 -54 -180 -82 -17 -13 -34 -24 -36 -24 -3 0 -7 14 -9 31 -4
28 -1 32 51 58 31 16 82 37 114 47 51 16 60 16 69 4 8 -12 9 -12 4 2 -3 12 2
18 17 20 12 2 23 1 25 -2 1 -3 36 -4 76 -2z m97 -73 c48 0 58 -18 17 -31 -15
-4 -17 -9 -8 -17 8 -9 15 -6 29 12 l18 23 49 -24 c27 -14 48 -31 46 -37 -1 -7
2 -10 6 -7 11 7 48 -32 39 -40 -4 -4 -13 -1 -22 6 -8 7 -21 10 -29 7 -7 -3
-20 0 -27 6 -11 10 -11 9 0 -5 7 -10 18 -18 24 -18 13 0 47 -30 47 -42 0 -6
-22 6 -49 26 -27 20 -56 36 -65 36 -9 0 -28 7 -42 16 -13 9 -32 18 -42 18 -9
1 -37 8 -61 15 -25 7 -55 11 -68 8 -13 -2 -23 -1 -23 3 0 3 -15 5 -32 3 -29
-3 -30 -2 -10 7 27 12 29 24 2 15 -11 -3 -32 -8 -47 -11 -41 -6 -106 -26 -120
-37 -8 -6 -13 -6 -13 0 0 32 213 86 295 74 22 -3 61 -6 86 -6z m-57 -80 c8 -8
19 -15 25 -15 6 0 11 -5 11 -11 0 -6 -7 -9 -15 -5 -8 3 -15 0 -15 -7 0 -8 -4
-7 -10 3 -8 12 -10 12 -15 -2 -6 -16 -9 -15 -28 3 -20 19 -22 19 -29 2 -5 -13
-7 -14 -7 -3 -1 13 -2 13 -11 0 -9 -15 -13 -16 -47 -19 -13 -1 -14 -4 -6 -9 9
-6 7 -12 -7 -22 -20 -14 -20 -15 3 -27 18 -10 19 -12 5 -13 -19 0 -26 -30 -7
-30 5 0 7 -4 4 -10 -7 -12 -55 -9 -55 3 0 5 7 7 15 3 11 -4 15 1 15 17 0 18
-5 22 -32 21 -20 -1 -32 -6 -34 -16 -1 -9 -7 -24 -14 -35 -9 -15 -10 -10 -6
25 7 45 3 50 -20 27 -21 -21 -34 -19 -34 5 0 11 4 20 10 20 5 0 7 -8 3 -17 -7
-19 -5 -18 17 10 7 10 9 17 4 16 -21 -4 -26 2 -14 16 7 8 21 15 31 15 11 0 19
4 19 10 0 5 12 13 28 16 15 4 32 10 37 14 18 12 65 10 65 -3 0 -9 2 -9 8 0 4
6 19 13 34 15 15 2 30 7 34 11 11 11 21 9 38 -8z m-1167 -447 c23 -25 33 -46
38 -87 4 -29 15 -72 25 -95 16 -34 17 -49 8 -90 -7 -34 -7 -55 1 -73 9 -21 7
-29 -15 -58 -14 -19 -32 -54 -39 -77 l-13 -43 -12 30 c-7 17 -13 44 -14 60 -1
24 4 31 21 33 36 5 46 28 44 100 -2 85 -15 134 -45 169 -13 16 -29 48 -36 73
-7 25 -21 52 -31 62 -26 22 -24 28 9 28 19 0 38 -11 59 -32z m-126 -435 c6
-16 13 -41 14 -58 2 -16 9 -50 15 -75 17 -64 18 -130 3 -130 -7 0 -15 -11 -19
-24 -7 -30 -34 -24 -34 8 0 16 -2 18 -9 7 -5 -7 -13 -11 -19 -7 -6 3 -15 -1
-20 -10 -12 -21 -32 -10 -32 17 0 13 4 18 13 13 9 -5 9 -4 1 6 -17 17 -54 3
-48 -18 5 -15 4 -15 -5 -2 -10 13 -17 9 -47 -23 -19 -21 -32 -42 -29 -47 3 -6
-1 -7 -9 -4 -23 9 -20 21 14 46 17 12 26 25 20 28 -7 4 -3 16 10 32 32 41 23
41 -16 1 l-36 -38 4 43 c3 34 1 42 -12 39 -8 -2 -14 -9 -13 -15 2 -7 0 -11 -5
-11 -21 4 -31 -3 -35 -23 -2 -13 -4 32 -3 98 1 170 -1 167 209 172 76 2 78 1
88 -25z"/>
<path d="M289 1279 c-11 -16 -25 -21 -62 -21 -43 0 -68 -10 -50 -21 8 -5 357
-31 423 -32 19 0 35 4 35 10 0 5 -5 9 -11 7 -6 -1 -19 7 -29 18 -10 11 -26 20
-35 20 -9 0 -22 6 -29 13 -10 10 -14 9 -22 -5 -16 -28 -85 -24 -100 5 -17 32
-17 32 -40 11 -20 -18 -22 -18 -34 -1 -16 23 -30 22 -46 -4z"/>
</g>
</svg>
