<?xml version="1.0" standalone="no"?>
<!DOCTYPE svg PUBLIC "-//W3C//DTD SVG 20010904//EN"
 "http://www.w3.org/TR/2001/REC-SVG-20010904/DTD/svg10.dtd">
<svg version="1.0" xmlns="http://www.w3.org/2000/svg"
 width="381.000000pt" height="470.000000pt" viewBox="0 0 381.000000 470.000000"
 preserveAspectRatio="xMidYMid meet">
<metadata>
Created by potrace 1.15, written by Peter Selinger 2001-2017
</metadata>
<g transform="translate(0.000000,470.000000) scale(0.100000,-0.100000)"
fill="#000000" stroke="none">
<path d="M1564 4338 c1 -21 -3 -39 -9 -39 -5 -1 -27 -1 -47 -2 -23 0 -35 -4
-31 -10 4 -7 -10 -8 -40 -4 -59 8 -82 -1 -145 -55 -27 -24 -72 -56 -98 -73
-32 -19 -53 -41 -59 -60 -6 -16 -22 -48 -37 -70 -46 -67 -46 -93 0 -345 l17
-95 30 4 c17 1 33 7 36 13 7 11 59 -10 76 -32 19 -24 23 -9 24 85 1 68 5 92
16 100 24 17 8 58 -19 49 -27 -8 -40 14 -25 40 6 12 10 25 9 29 -1 5 5 23 13
41 16 34 68 68 140 91 22 7 64 22 94 33 51 18 57 19 100 4 25 -8 49 -20 53
-26 8 -13 -29 -46 -52 -46 -10 0 -23 -7 -30 -16 -12 -13 -8 -15 31 -15 24 1
69 1 99 0 55 0 55 0 25 -14 -16 -7 -34 -10 -40 -6 -19 13 -62 12 -74 -3 -10
-12 -6 -16 33 -21 24 -4 67 -5 95 -4 52 4 68 -4 31 -16 -19 -6 -25 -17 -20
-40 1 -5 -8 0 -20 13 -13 14 -32 22 -53 22 -24 0 -28 -3 -17 -10 24 -15 -1
-31 -76 -46 -83 -18 -129 -47 -154 -96 -17 -35 -17 -78 -1 -78 4 0 18 11 31
25 13 14 26 23 28 20 3 -3 -5 -17 -19 -32 l-24 -26 25 7 c73 22 100 18 63 -9
-14 -11 -15 -15 -4 -29 11 -13 9 -20 -9 -46 l-21 -30 21 0 c12 0 18 -4 15 -10
-13 -21 22 -9 45 15 13 14 27 25 31 25 22 0 98 90 110 129 l13 43 23 -26 c13
-15 23 -33 23 -41 0 -8 10 -33 21 -55 17 -32 19 -46 11 -68 -6 -15 -13 -35
-16 -46 -5 -15 -9 -16 -21 -6 -12 10 -21 10 -45 0 -16 -7 -30 -16 -30 -21 0
-23 -21 -6 -26 21 -8 36 -14 37 -40 8 -62 -70 -46 -144 16 -78 25 27 33 30 45
20 8 -7 15 -17 15 -22 0 -6 -7 -5 -15 2 -12 10 -15 9 -15 -4 0 -10 -5 -14 -10
-11 -6 3 -15 -6 -20 -20 -5 -14 -14 -23 -20 -20 -5 3 -7 0 -4 -8 3 -8 1 -18
-5 -22 -6 -3 -11 -20 -11 -37 0 -41 -11 -30 -12 12 -1 17 -4 26 -8 19 -6 -8
-9 -8 -12 2 -3 8 -3 -10 0 -38 3 -36 1 -53 -7 -53 -7 0 -9 10 -6 28 3 15 2 21
-1 14 -3 -6 -10 -10 -15 -6 -5 3 -9 1 -9 -3 0 -5 -7 -18 -16 -29 -15 -18 -15
-18 -9 4 4 13 2 22 -4 22 -6 0 -11 9 -11 19 0 28 -20 37 -27 12 -7 -27 -18
-26 -49 4 -26 26 -35 31 -33 18 1 -5 0 -17 -1 -28 -1 -14 -5 -10 -11 13 -5 18
-14 30 -19 27 -9 -5 -26 33 -22 49 2 4 -2 14 -9 22 -6 8 -9 21 -5 29 3 8 1 15
-5 15 -5 0 -8 12 -7 28 2 19 -2 27 -12 27 -8 0 -18 7 -23 15 -4 8 -5 -3 -2
-25 17 -121 16 -131 -12 -97 -8 9 -12 11 -8 4 4 -7 -1 -15 -12 -18 -10 -3 -31
-12 -47 -19 l-29 -13 40 -20 c25 -13 45 -33 53 -51 7 -17 17 -28 23 -24 6 4 7
1 2 -7 -4 -7 -3 -15 2 -19 18 -12 66 -159 59 -184 -5 -22 17 -109 34 -132 4
-5 11 -26 14 -45 l7 -35 -18 38 -18 38 -16 -28 c-9 -15 -21 -50 -28 -78 -24
-99 -34 -125 -52 -130 -18 -6 -149 -141 -149 -154 0 -4 -20 -22 -45 -41 -82
-61 -160 -197 -181 -312 -14 -81 42 -326 114 -498 38 -91 67 -182 148 -450 20
-69 38 -127 40 -129 7 -8 17 9 35 61 9 29 18 47 18 40 1 -7 5 -10 11 -7 19 12
10 -19 -21 -67 -31 -47 -31 -52 -25 -123 5 -52 3 -82 -5 -97 -7 -13 -14 -43
-15 -68 -2 -25 -10 -72 -18 -105 -18 -69 -20 -172 -5 -230 21 -79 21 -94 0
-150 -12 -30 -21 -69 -21 -85 0 -15 -4 -30 -9 -32 -7 -2 -71 -192 -71 -212 0
-4 64 -5 142 -4 l142 3 8 33 c11 43 28 41 28 -3 l0 -35 765 0 765 0 0 26 c0
14 4 23 10 19 6 -3 10 -15 10 -26 0 -18 8 -19 148 -19 l148 0 -4 40 c-2 22 0
40 5 40 21 0 46 -28 46 -53 0 -27 0 -27 72 -27 l73 0 -19 50 c-23 61 -24 78
-3 101 14 16 14 19 -10 34 -41 27 -31 104 16 134 18 11 24 10 41 -8 16 -15 21
-35 23 -78 1 -32 7 -71 13 -87 6 -16 14 -55 18 -87 l6 -59 98 0 c62 0 99 4 99
10 0 6 -9 28 -19 48 -11 21 -25 66 -32 99 -16 77 -9 86 71 102 40 8 60 17 60
27 0 17 2 17 -50 -1 -56 -20 -106 -19 -114 1 -12 30 -6 72 14 96 16 20 18 35
14 74 -7 58 18 206 41 241 9 13 13 28 10 33 -5 8 10 28 65 86 18 19 20 35 20
170 l0 148 -66 -64 c-127 -124 -334 -360 -334 -380 0 -13 -57 -79 -147 -171
-82 -83 -154 -162 -161 -176 -8 -13 -16 -23 -18 -20 -8 7 74 185 94 205 10 10
30 54 46 97 64 185 142 374 178 431 34 55 63 147 52 166 -3 4 -10 35 -15 69
-5 34 -21 89 -35 122 -19 45 -24 71 -20 98 4 23 0 53 -10 80 -9 24 -16 67 -15
94 1 33 -10 80 -30 135 -41 114 -59 181 -52 192 9 16 -19 102 -42 128 -12 14
-29 39 -39 55 l-17 30 22 -25 c18 -20 21 -21 14 -5 -4 11 -12 34 -17 50 -6 17
-19 48 -30 70 -86 168 -122 232 -143 253 -14 14 -25 30 -25 36 0 6 -20 46 -45
88 -52 89 -60 113 -14 44 39 -58 49 -53 18 10 -34 71 -88 120 -153 139 -31 9
-55 21 -53 27 7 33 -604 139 -660 115 -18 -8 -27 -6 -43 8 -15 14 -20 15 -20
4 0 -11 -2 -11 -10 1 -12 18 -13 43 -2 36 13 -8 30 83 26 139 -9 129 -39 357
-58 436 -11 47 -10 59 1 75 19 26 16 68 -7 89 -12 11 -18 26 -15 35 3 10 -16
60 -43 113 -29 59 -40 90 -29 79 11 -9 34 -46 53 -82 l33 -65 1 42 c0 25 -6
48 -16 57 -8 9 -13 16 -9 16 11 0 -30 37 -48 43 -15 6 -17 13 -12 37 4 19 3
30 -4 30 -6 0 -11 7 -11 15 0 8 -5 15 -11 15 -5 0 -7 5 -4 10 3 6 1 10 -5 10
-22 0 -40 29 -40 66 0 39 -20 63 -52 64 -10 0 -18 4 -18 10 0 5 -6 7 -14 4 -8
-3 -17 -1 -21 5 -3 6 -19 11 -34 11 -15 0 -32 5 -39 12 -17 17 -28 0 -14 -22
10 -16 10 -20 -1 -20 -22 0 -45 23 -51 50 -2 14 -4 8 -2 -12z m-168 -1313 c3
-13 12 -29 20 -36 8 -6 14 -20 14 -30 0 -12 5 -16 15 -13 11 5 15 -1 15 -19 0
-14 6 -27 14 -30 8 -3 17 -19 21 -36 4 -17 10 -29 15 -26 4 3 6 -4 3 -15 -3
-11 -1 -20 4 -20 5 0 10 -12 11 -27 1 -15 8 -30 15 -35 6 -4 9 -8 6 -8 -4 0 1
-37 12 -82 10 -45 16 -84 14 -86 -2 -2 -26 20 -55 48 -46 46 -52 57 -61 113
-11 67 -74 263 -93 286 -9 12 -8 13 3 6 11 -6 13 -3 9 13 -4 12 -2 22 3 22 5
0 11 -11 15 -25z m399 -807 c-9 -86 -19 -118 -39 -118 -8 0 -35 -9 -60 -20
l-46 -19 1 27 c0 24 1 24 8 7 6 -14 8 -7 8 25 -1 81 18 122 66 146 69 35 70
34 62 -48z"/>
</g>
</svg>
