<svg xmlns="http://www.w3.org/2000/svg" width="512" height="512" viewBox="0 0 438.533 438.533"><path d="M329.33 29.4c33.592 19.608 60.189 46.205 79.796 79.798 19.606 33.599 29.407 70.277 29.407 110.062 0 39.781-9.801 76.47-29.407 110.063-19.604 33.595-46.201 60.192-79.796 79.8-33.597 19.609-70.286 29.41-110.064 29.41-39.78 0-76.463-9.804-110.062-29.407-33.592-19.607-60.189-46.204-79.798-79.799C9.801 295.73-.001 259.044-.001 219.264s9.802-76.47 29.407-110.065c19.602-33.593 46.206-60.189 79.798-79.795C142.8 9.801 179.488.001 219.266.001 259.048 0 295.738 9.801 329.33 29.4zM206.702 77.084l-25.981 25.981c-3.613 3.613-5.42 7.901-5.42 12.847 0 4.948 1.807 9.229 5.42 12.847l53.961 53.954H91.362c-4.948 0-9.232 1.813-12.847 5.428-3.62 3.613-5.427 7.898-5.427 12.847v36.547c0 4.948 1.807 9.231 5.427 12.847 3.614 3.617 7.898 5.426 12.847 5.426h143.32l-53.961 53.959c-3.425 3.431-5.133 7.708-5.133 12.85 0 5.14 1.708 9.423 5.133 12.85l25.981 25.981c3.429 3.422 7.714 5.137 12.852 5.137 5.137 0 9.419-1.709 12.847-5.137l103.353-103.356 25.981-25.981c3.425-3.427 5.14-7.71 5.14-12.847 0-5.142-1.715-9.423-5.14-12.849l-25.981-25.98-103.353-103.35c-3.427-3.432-7.71-5.14-12.847-5.14-5.138-.001-9.423 1.707-12.852 5.139z" data-original="#000000" class="active-path"/></svg>