<svg xmlns="http://www.w3.org/2000/svg" width="512" height="512" viewBox="0 0 438.533 438.533"><path d="M109.203 29.4c-33.592 19.608-60.189 46.205-79.796 79.798C9.801 142.797 0 179.475 0 219.26c0 39.781 9.801 76.47 29.407 110.063 19.604 33.595 46.201 60.192 79.796 79.8 33.597 19.609 70.286 29.41 110.064 29.41 39.78 0 76.463-9.804 110.062-29.407 33.592-19.607 60.189-46.204 79.798-79.799 19.605-33.597 29.407-70.283 29.407-110.063s-9.802-76.47-29.407-110.065c-19.602-33.593-46.206-60.189-79.798-79.795C295.733 9.801 259.045.001 219.267.001 179.485 0 142.795 9.801 109.203 29.4zm122.628 47.684l25.981 25.981c3.613 3.613 5.42 7.901 5.42 12.847 0 4.948-1.807 9.229-5.42 12.847l-53.961 53.954h143.32c4.948 0 9.232 1.813 12.847 5.428 3.62 3.613 5.427 7.898 5.427 12.847v36.547c0 4.948-1.807 9.231-5.427 12.847-3.614 3.617-7.898 5.426-12.847 5.426h-143.32l53.961 53.959c3.425 3.431 5.133 7.708 5.133 12.85 0 5.14-1.708 9.423-5.133 12.85l-25.981 25.981c-3.429 3.422-7.714 5.137-12.852 5.137-5.137 0-9.419-1.709-12.847-5.137L102.779 258.092l-25.981-25.981c-3.425-3.427-5.14-7.71-5.14-12.847 0-5.142 1.715-9.423 5.14-12.849l25.981-25.98 103.353-103.35c3.427-3.432 7.71-5.14 12.847-5.14 5.138-.001 9.423 1.707 12.852 5.139z" data-original="#000000"/></svg>