<svg xmlns="http://www.w3.org/2000/svg" viewBox="0 0 489.935 489.935" width="512" height="512"><path d="M456.668 278.235c0-116.7-95-211.6-211.7-211.6h-.7l63.1-41.9c6.2-4.1 7.9-12.5 3.8-18.7-4.1-6.2-12.5-7.9-18.7-3.8l-91.5 60.8c-3.3 2.2-5.4 5.7-5.9 9.6-.1.6-.1 1.1-.1 1.7 0 3.3 1.2 6.5 3.5 9l76.1 84.5c5 5.5 13.5 6 19.1 1 5.5-5 6-13.5 1-19.1l-50.7-56.1h1c101.9 0 184.7 82.8 184.7 184.6s-82.8 184.7-184.7 184.7-184.7-82.8-184.7-184.6c0-49.3 19.2-95.7 54.1-130.5 5.3-5.3 5.3-13.8 0-19.1-5.3-5.3-13.8-5.3-19.1 0-40 40-62 93.1-62 149.6 0 116.6 94.9 211.6 211.7 211.6s211.7-95 211.7-211.7z" data-original="#000000" class="active-path"/></svg>