<svg xmlns="http://www.w3.org/2000/svg"><symbol id="flip" viewBox="0 0 16.000000 15.000000" preserveAspectRatio="xMidYMid meet">
<metadata>
Created by potrace 1.15, written by Peter Selinger 2001-2017
</metadata>
<g transform="translate(0.000000,15.000000) scale(0.100000,-0.100000)" fill="#000000" stroke="none">
</g>
</symbol><symbol id="foto" viewBox="0 0 17.000000 17.000000" preserveAspectRatio="xMidYMid meet">
<metadata>
Created by potrace 1.15, written by Peter Selinger 2001-2017
</metadata>
<g transform="translate(0.000000,17.000000) scale(0.100000,-0.100000)" fill="#000000" stroke="none">
<path d="M26 139 c-34 -40 -33 -74 3 -110 57 -57 141 -21 141 60 0 78 -93 111
-144 50z"/>
</g>
</symbol><symbol id="logo" viewBox="0 0 54.000000 17.000000" preserveAspectRatio="xMidYMid meet">
<metadata>
Created by potrace 1.15, written by Peter Selinger 2001-2017
</metadata>
<g transform="translate(0.000000,17.000000) scale(0.100000,-0.100000)" fill="#000000" stroke="none">
<path d="M0 85 l0 -85 123 0 123 0 17 30 c10 16 25 37 35 46 12 12 13 19 5 21
-7 3 -22 20 -33 39 l-22 34 -124 0 -124 0 0 -85z"/>
</g>
</symbol><symbol id="next" viewBox="0 0 15.000000 16.000000" preserveAspectRatio="xMidYMid meet">
<metadata>
Created by potrace 1.15, written by Peter Selinger 2001-2017
</metadata>
<g transform="translate(0.000000,16.000000) scale(0.100000,-0.100000)" fill="#000000" stroke="none">
</g>
</symbol><symbol id="plus" viewBox="0 0 26.000000 25.000000" preserveAspectRatio="xMidYMid meet">
<metadata>
Created by potrace 1.15, written by Peter Selinger 2001-2017
</metadata>
<g transform="translate(0.000000,25.000000) scale(0.100000,-0.100000)" fill="#000000" stroke="none">
</g>
</symbol><symbol id="previous" viewBox="0 0 15.000000 16.000000" preserveAspectRatio="xMidYMid meet">
<metadata>
Created by potrace 1.15, written by Peter Selinger 2001-2017
</metadata>
<g transform="translate(0.000000,16.000000) scale(0.100000,-0.100000)" fill="#000000" stroke="none">
</g>
</symbol><symbol id="reset" viewBox="0 0 16.000000 15.000000" preserveAspectRatio="xMidYMid meet">
<metadata>
Created by potrace 1.15, written by Peter Selinger 2001-2017
</metadata>
<g transform="translate(0.000000,15.000000) scale(0.100000,-0.100000)" fill="#000000" stroke="none">
</g>
</symbol></svg>