<svg xmlns="http://www.w3.org/2000/svg" width="512" height="512" viewBox="0 0 444.815 444.815"><path d="M22.839 248.103l185.865 185.864c7.227 7.233 15.892 10.848 25.98 10.848 9.9 0 18.464-3.615 25.697-10.848l21.411-21.412c7.234-6.853 10.85-15.418 10.85-25.697 0-10.277-3.616-18.842-10.85-25.697l-83.653-83.937h200.999c9.895 0 17.937-3.568 24.123-10.707s9.279-15.752 9.279-25.837v-36.546c0-10.088-3.094-18.698-9.279-25.837s-14.228-10.704-24.123-10.704H198.143l83.652-83.658c7.234-7.228 10.85-15.89 10.85-25.981 0-10.089-3.616-18.75-10.85-25.978l-21.411-21.412C252.958 3.521 244.394 0 234.687 0c-9.899 0-18.562 3.521-25.981 10.564L22.842 196.428c-7.043 7.043-10.567 15.701-10.567 25.981 0 10.467 3.524 19.036 10.564 25.694z" data-original="#000000" class="active-path"/></svg>